<?xml version="1.0" encoding="UTF-8" standalone="no"?>
<svg width="94px" height="94px" viewBox="0 0 94 94" version="1.1" xmlns="http://www.w3.org/2000/svg" xmlns:xlink="http://www.w3.org/1999/xlink" xmlns:sketch="http://www.bohemiancoding.com/sketch/ns">
    <!-- Generator: Sketch 3.4.4 (17249) - http://www.bohemiancoding.com/sketch -->
    <title>noun_175901_cc</title>
    <desc>Created with Sketch.</desc>
    <defs></defs>
    <g id="Page-1" stroke="none" stroke-width="1" fill="none" fill-rule="evenodd" sketch:type="MSPage">
        <g id="noun_175901_cc" sketch:type="MSLayerGroup" transform="translate(2.000000, 1.000000)" stroke="#B2B2B2" stroke-width="4" fill="#B2B2B2">
            <g id="Group" transform="translate(0.000000, 0.637840)" sketch:type="MSShapeGroup">
                <path d="M45,0.36218 C20.172567,0.36218 -1.2e-06,20.53474 -1.2e-06,45.3621 C-1.2e-06,70.1896 20.172567,90.3621 45,90.3621 C69.827433,90.3621 90.000001,70.1896 90.000001,45.3621 C90.000001,20.53474 69.827433,0.36218 45,0.36218 L45,0.36218 Z M45,4.64789 C67.511261,4.64789 85.714287,22.85092 85.714287,45.3621 C85.714287,67.8734 67.511261,86.0764 45,86.0764 C22.488739,86.0764 4.2857132,67.8734 4.2857132,45.3621 C4.2857132,22.85092 22.488739,4.64789 45,4.64789 L45,4.64789 Z" id="Shape"></path>
                <path d="M40.714286,17 L40.714286,49.8661417 L66.1849161,62.279 L68,58.7426741 L44.772466,47.4229426 L44.772466,17 L40.714286,17 L40.714286,17 Z" id="Shape"></path>
            </g>
        </g>
    </g>
</svg>